<svg xmlns="http://www.w3.org/2000/svg" width="30" height="30" viewBox="0 0 37.5 37.5" version="1.0"><defs><clipPath id="prefix__a"><path d="M.035 2.242H37V34.81H.035zm0 0"/></clipPath></defs><g clip-path="url(#prefix__a)"><path fill="#fff" d="M18.54 27.277a2.046 2.046 0 00-1.438.598c-.192.191-.34.414-.442.664-.105.25-.156.508-.156.777 0 .274.05.532.156.782.102.25.25.468.442.66.191.191.414.34.66.441.25.106.511.156.781.156s.531-.05.781-.156c.25-.101.469-.25.66-.441.192-.192.34-.41.442-.66.105-.25.156-.512.156-.782s-.055-.53-.156-.78a2.04 2.04 0 00-1.887-1.259zm.062-16.644h-.122c-.304 0-.597.058-.875.18a2.202 2.202 0 00-1.207 1.273 2.208 2.208 0 00-.132.887l.68 12.363a1.53 1.53 0 00.476 1.027 1.517 1.517 0 001.05.422h.133a1.554 1.554 0 001.055-.422 1.53 1.53 0 00.477-1.027l.68-12.363a2.278 2.278 0 00-.133-.887 2.269 2.269 0 00-.473-.762 2.242 2.242 0 00-.734-.511 2.18 2.18 0 00-.875-.18zm16.96 22.246a1.28 1.28 0 01-.503.516 1.312 1.312 0 01-.696.18H2.723c-.54 0-.938-.231-1.207-.696-.266-.465-.266-.926.004-1.39l15.816-27.4c.27-.464.668-.698 1.207-.698.535 0 .937.234 1.203.699l15.817 27.398c.132.215.195.446.195.696 0 .25-.063.48-.196.695zM20.739 3.516l15.82 27.398c.227.395.34.816.34 1.27 0 .453-.113.875-.34 1.27a2.517 2.517 0 01-2.195 1.269H2.723c-.453 0-.88-.114-1.27-.34a2.47 2.47 0 01-.93-.93 2.494 2.494 0 01-.34-1.27c0-.453.114-.874.34-1.269l15.82-27.398c.114-.196.247-.368.403-.528a2.61 2.61 0 011.137-.656c.215-.059.433-.086.656-.086a2.51 2.51 0 011.27.34c.195.113.367.246.527.402.156.16.289.332.402.528zm0 0" fill-rule="evenodd"/></g></svg>