<svg xmlns="http://www.w3.org/2000/svg" width="30" height="30" viewBox="64 0 208 256" overflow="visible"><path d="M128 21.333c-17.578 0-32 14.422-32 32H40a8 8 0 100 16h13.333v136c0 16.176 13.158 29.334 29.334 29.334h54.041a69.437 69.437 0 01-11.51-16H82.667c-7.35 0-13.334-5.984-13.334-13.334v-136h117.334v48c5.514 0 10.853.711 16 1.927V69.333H216a8 8 0 100-16h-56c0-17.578-14.422-32-32-32zm0 16c8.929 0 16 7.072 16 16h-32c0-8.928 7.071-16 16-16zm-18.792 58.552a8 8 0 00-7.875 8.115v80a8 8 0 1016 0v-80a8 8 0 00-8.125-8.115zm37.459.115c-4.422 0-8 3.579-8 8v32.708a69.437 69.437 0 0116-11.51V104c0-4.421-3.58-8-8-8zm40 32c-32.4 0-58.667 26.267-58.667 58.667 0 32.4 26.267 58.666 58.667 58.666 32.4 0 58.666-26.266 58.666-58.666S219.067 128 186.667 128zM160 154.667c1.364 0 2.728.52 3.77 1.562l22.897 22.896 22.895-22.896a5.328 5.328 0 017.542 0 5.328 5.328 0 010 7.542l-22.896 22.896 22.896 22.895a5.328 5.328 0 010 7.542 5.319 5.319 0 01-3.77 1.563 5.319 5.319 0 01-3.772-1.563l-22.895-22.896-22.896 22.896a5.319 5.319 0 01-3.771 1.563 5.319 5.319 0 01-3.77-1.563 5.328 5.328 0 010-7.542l22.895-22.895-22.896-22.896a5.328 5.328 0 010-7.542 5.315 5.315 0 013.77-1.562z" fill="#bb2d3b" stroke-miterlimit="10" font-family="none" font-weight="none" font-size="none" text-anchor="none"/></svg>