<svg xmlns="http://www.w3.org/2000/svg" width="30" height="30" viewBox="0 0 37.5 37.5" preserveAspectRatio="xMidYMid meet" version="1.0"><defs><g/><clipPath id="3590e7da7b"><path d="M 0 0 L 37.007812 0 L 37.007812 37.007812 L 0 37.007812 Z M 0 0 " clip-rule="nonzero"/></clipPath><clipPath id="6492f28431"><path d="M 18.503906 0 C 8.285156 0 0 8.285156 0 18.503906 C 0 28.722656 8.285156 37.007812 18.503906 37.007812 C 28.722656 37.007812 37.007812 28.722656 37.007812 18.503906 C 37.007812 8.285156 28.722656 0 18.503906 0 Z M 18.503906 0 " clip-rule="nonzero"/></clipPath></defs><g clip-path="url(#3590e7da7b)"><g clip-path="url(#6492f28431)"><path stroke-linecap="butt" transform="matrix(0.740132, 0, 0, 0.740132, 0.0000005, 0)" fill="none" stroke-linejoin="miter" d="M 25.000834 0 C 11.194167 0 -0.000000675556 11.194167 -0.000000675556 25.000835 C -0.000000675556 38.807503 11.194167 50.00167 25.000834 50.00167 C 38.807502 50.00167 50.001669 38.807503 50.001669 25.000835 C 50.001669 11.194167 38.807502 0 25.000834 0 Z M 25.000834 0 " stroke="#ffffff" stroke-width="4" stroke-opacity="1" stroke-miterlimit="4"/></g></g><g fill="#ffffff" fill-opacity="1"><g transform="translate(14.08559, 29.449758)"><g><path d="M 7.265625 -20.078125 C 7.265625 -19.253906 7.015625 -18.601562 6.515625 -18.125 C 6.015625 -17.644531 5.347656 -17.40625 4.515625 -17.40625 C 3.703125 -17.40625 3.050781 -17.644531 2.5625 -18.125 C 2.082031 -18.601562 1.84375 -19.253906 1.84375 -20.078125 C 1.84375 -20.867188 2.09375 -21.507812 2.59375 -22 C 3.09375 -22.488281 3.753906 -22.734375 4.578125 -22.734375 C 5.390625 -22.734375 6.039062 -22.488281 6.53125 -22 C 7.019531 -21.507812 7.265625 -20.867188 7.265625 -20.078125 Z M 6.734375 -3.0625 C 6.734375 -2.519531 6.867188 -2.128906 7.140625 -1.890625 C 7.410156 -1.648438 7.832031 -1.53125 8.40625 -1.53125 C 8.40625 -0.945312 8.1875 -0.4375 7.75 0 L 1.328125 0 C 0.898438 -0.4375 0.6875 -0.945312 0.6875 -1.53125 C 1.25 -1.53125 1.65625 -1.648438 1.90625 -1.890625 C 2.164062 -2.128906 2.296875 -2.53125 2.296875 -3.09375 L 2.296875 -11.328125 C 2.296875 -11.859375 2.164062 -12.234375 1.90625 -12.453125 C 1.65625 -12.679688 1.160156 -12.796875 0.421875 -12.796875 L 0.421875 -14.046875 C 0.878906 -14.335938 1.648438 -14.640625 2.734375 -14.953125 C 3.828125 -15.265625 4.75 -15.421875 5.5 -15.421875 C 5.9375 -15.421875 6.25 -15.316406 6.4375 -15.109375 C 6.632812 -14.910156 6.734375 -14.578125 6.734375 -14.109375 Z M 6.734375 -3.0625 "/></g></g></g></svg>