<svg xmlns="http://www.w3.org/2000/svg" width="30" height="30" viewBox="0 0 37.5 37.5" version="1.0"><defs><clipPath id="prefix__a"><path d="M0 0h37.008v37.008H0zm0 0"/></clipPath><clipPath id="prefix__b"><path d="M18.504 0C8.285 0 0 8.285 0 18.504c0 10.219 8.285 18.504 18.504 18.504 10.219 0 18.504-8.285 18.504-18.504C37.008 8.285 28.723 0 18.504 0zm0 0"/></clipPath></defs><g clip-path="url(#prefix__a)"><g clip-path="url(#prefix__b)"><path fill="none" d="M18.504 0C8.285 0 0 8.285 0 18.504c0 10.219 8.285 18.504 18.504 18.504 10.219 0 18.504-8.285 18.504-18.504C37.008 8.285 28.723 0 18.504 0zm0 0" stroke="#fff" stroke-width="2.96052"/></g></g><path d="M21.351 9.372c0 .824-.25 1.476-.75 1.953-.5.48-1.168.719-2 .719-.812 0-1.465-.239-1.953-.72-.48-.476-.719-1.128-.719-1.952 0-.79.25-1.43.75-1.922.5-.489 1.16-.735 1.985-.735.812 0 1.46.246 1.953.735.488.492.734 1.133.734 1.922zm-.531 17.015c0 .543.133.934.406 1.172.27.242.692.36 1.266.36 0 .585-.219 1.093-.656 1.53h-6.422c-.43-.437-.64-.945-.64-1.53.562 0 .968-.118 1.218-.36.258-.238.39-.64.39-1.203v-8.234c0-.532-.132-.907-.39-1.125-.25-.227-.746-.344-1.485-.344v-1.25c.457-.29 1.227-.594 2.313-.906 1.094-.313 2.016-.47 2.766-.47.437 0 .75.106.937.313.195.2.297.532.297 1zm0 0" fill="#fff"/></svg>