<svg xmlns="http://www.w3.org/2000/svg" width="30" height="30" viewBox="0 0 37.5 37.5" preserveAspectRatio="xMidYMid meet" version="1.0"><defs><g/><clipPath id="fcdd791d4b"><path d="M 0 0 L 37.007812 0 L 37.007812 37.007812 L 0 37.007812 Z M 0 0 " clip-rule="nonzero"/></clipPath><clipPath id="dcc0d4f670"><path d="M 18.503906 0 C 8.285156 0 0 8.285156 0 18.503906 C 0 28.722656 8.285156 37.007812 18.503906 37.007812 C 28.722656 37.007812 37.007812 28.722656 37.007812 18.503906 C 37.007812 8.285156 28.722656 0 18.503906 0 Z M 18.503906 0 " clip-rule="nonzero"/></clipPath></defs><g clip-path="url(#fcdd791d4b)"><g clip-path="url(#dcc0d4f670)"><path stroke-linecap="butt" transform="matrix(0.740132, 0, 0, 0.740132, 0.0000005, 0)" fill="none" stroke-linejoin="miter" d="M 25.000834 0 C 11.194167 0 -0.000000675556 11.194167 -0.000000675556 25.000835 C -0.000000675556 38.807503 11.194167 50.00167 25.000834 50.00167 C 38.807502 50.00167 50.001669 38.807503 50.001669 25.000835 C 50.001669 11.194167 38.807502 0 25.000834 0 Z M 25.000834 0 " stroke="#ffffff" stroke-width="4" stroke-opacity="1" stroke-miterlimit="4"/></g></g><g fill="#ffffff" fill-opacity="1"><g transform="translate(10.606513, 29.631285)"><g><path d="M 1.296875 -14.796875 C 1.515625 -16.671875 2.203125 -18.117188 3.359375 -19.140625 C 4.523438 -20.160156 6.035156 -20.671875 7.890625 -20.671875 C 9.796875 -20.671875 11.359375 -20.144531 12.578125 -19.09375 C 13.804688 -18.039062 14.421875 -16.722656 14.421875 -15.140625 C 14.421875 -14.347656 14.238281 -13.578125 13.875 -12.828125 C 13.519531 -12.078125 12.679688 -11.113281 11.359375 -9.9375 C 10.335938 -9.03125 9.691406 -8.316406 9.421875 -7.796875 C 9.160156 -7.273438 9.019531 -6.335938 9 -4.984375 L 6.609375 -4.984375 C 6.609375 -6.054688 6.644531 -6.835938 6.71875 -7.328125 C 6.800781 -7.828125 6.960938 -8.3125 7.203125 -8.78125 C 7.453125 -9.257812 7.773438 -9.707031 8.171875 -10.125 C 8.566406 -10.539062 9.117188 -11.054688 9.828125 -11.671875 C 10.734375 -12.472656 11.296875 -13.101562 11.515625 -13.5625 C 11.742188 -14.019531 11.859375 -14.484375 11.859375 -14.953125 C 11.859375 -15.921875 11.472656 -16.773438 10.703125 -17.515625 C 9.941406 -18.253906 9.015625 -18.625 7.921875 -18.625 C 5.679688 -18.625 4.332031 -17.253906 3.875 -14.515625 Z M 9.28125 0 L 6.453125 0 L 6.453125 -2.84375 L 9.28125 -2.84375 Z M 9.28125 0 "/></g></g></g></svg>