<svg xmlns="http://www.w3.org/2000/svg" width="30" height="30" viewBox="0 0 37.5 37.5" version="1.0"><defs><clipPath id="prefix__a"><path d="M0 0h37.008v37.008H0zm0 0"/></clipPath><clipPath id="prefix__b"><path d="M18.504 0C8.285 0 0 8.285 0 18.504c0 10.219 8.285 18.504 18.504 18.504 10.219 0 18.504-8.285 18.504-18.504C37.008 8.285 28.723 0 18.504 0zm0 0"/></clipPath></defs><g clip-path="url(#prefix__a)"><g clip-path="url(#prefix__b)"><path fill="none" d="M18.504 0C8.285 0 0 8.285 0 18.504c0 10.219 8.285 18.504 18.504 18.504 10.219 0 18.504-8.285 18.504-18.504C37.008 8.285 28.723 0 18.504 0zm0 0" stroke="#fff" stroke-width="2.96052"/></g></g><path d="M11.903 14.834c.22-1.875.907-3.32 2.063-4.343 1.164-1.02 2.676-1.532 4.531-1.532 1.906 0 3.469.528 4.688 1.579 1.226 1.054 1.843 2.37 1.843 3.953 0 .793-.183 1.562-.546 2.312-.356.75-1.196 1.715-2.516 2.89-1.024.907-1.668 1.622-1.938 2.141-.261.524-.402 1.461-.421 2.813h-2.391c0-1.07.035-1.852.11-2.344.081-.5.241-.984.484-1.453.25-.477.57-.926.968-1.344.395-.414.946-.93 1.657-1.547.906-.8 1.468-1.43 1.687-1.89a3.11 3.11 0 00.344-1.39c0-.97-.387-1.821-1.156-2.563-.762-.739-1.688-1.11-2.782-1.11-2.242 0-3.59 1.371-4.046 4.11zm7.985 14.797H17.06v-2.843h2.828zm0 0" fill="#fff"/></svg>